<?xml version="1.0" ?><svg viewBox="0 0 32 32" xmlns="http://www.w3.org/2000/svg"><title/><g data-name="Layer 42" id="Layer_42"><path d="M24,3H8A5,5,0,0,0,3,8V24a5,5,0,0,0,5,5H24a5,5,0,0,0,5-5V8A5,5,0,0,0,24,3Zm3,21a3,3,0,0,1-3,3H8a3,3,0,0,1-3-3V8A3,3,0,0,1,8,5H24a3,3,0,0,1,3,3Z"/><path d="M23,12a1,1,0,0,0,0-2H21a.88.88,0,0,0-.28.06l-.09,0a1.07,1.07,0,0,0-.28.19h0L16,14.59l-4.29-4.3h0a1.07,1.07,0,0,0-.28-.19l-.09,0a.88.88,0,0,0-.28-.06H9a1,1,0,0,0,0,2h1v8H9a1,1,0,0,0,0,2h4a1,1,0,0,0,0-2H12V13.41l3.29,3.3a1,1,0,0,0,1.42,0L20,13.41V20H19a1,1,0,0,0,0,2h4a1,1,0,0,0,0-2H22V12Z"/></g></svg>